<?xml version="1.0" encoding="UTF-8" standalone="no"?>
<!DOCTYPE svg PUBLIC "-//W3C//DTD SVG 1.1//EN" "http://www.w3.org/Graphics/SVG/1.1/DTD/svg11.dtd">
<svg width="100%" height="100%" viewBox="0 0 1000 1000" version="1.1" xmlns="http://www.w3.org/2000/svg" xmlns:xlink="http://www.w3.org/1999/xlink" xml:space="preserve" xmlns:serif="http://www.serif.com/" style="fill-rule:evenodd;clip-rule:evenodd;stroke-linejoin:round;stroke-miterlimit:2;">
    <circle cx="500" cy="500" r="300"/>
    <g transform="matrix(0.70723,0.706983,-0.706983,0.70723,499.877,-207.107)">
        <path d="M500,0C775.958,0 1000,224.042 1000,500C1000,775.958 775.958,1000 500,1000C224.042,1000 0,775.958 0,500C0,224.042 224.042,0 500,0ZM500,50L500,100C279.234,100 100,279.234 100,500C100,720.766 279.234,900 500,900C720.766,900 900,720.766 900,500C900,498.256 899.989,496.514 899.967,494.783C899.989,496.514 900,498.256 900,500L950,500C950,266.664 772.022,74.569 544.564,52.183C772.022,74.569 950,266.664 950,500C950,748.362 748.362,950 500,950C251.638,950 50,748.362 50,500C50,251.638 251.638,50 500,50ZM500,150C693.17,150 850,306.83 850,500C850,693.17 693.17,850 500,850C306.83,850 150,693.17 150,500C150,306.83 306.83,150 500,150ZM899.796,487.103C899.812,487.633 899.828,488.172 899.843,488.711C899.828,488.175 899.813,487.639 899.796,487.103ZM899.706,484.548L899.736,485.358L899.706,484.548L899.673,483.696L899.706,484.548ZM899.255,475.421C899.321,476.502 899.382,477.576 899.438,478.651C899.382,477.574 899.321,476.497 899.255,475.421ZM898.266,462.545C898.322,463.148 898.377,463.76 898.432,464.372C898.377,463.762 898.322,463.153 898.266,462.545ZM897.39,454.096C897.494,455.011 897.596,455.933 897.695,456.855C897.597,455.935 897.495,455.015 897.39,454.096ZM896.401,446.163L896.458,446.585L896.623,447.834C896.55,447.277 896.476,446.72 896.401,446.163ZM527.449,50.825C528.151,50.868 528.853,50.912 529.555,50.958C528.862,50.912 528.155,50.868 527.449,50.825ZM521.704,50.515C521.704,50.515 522.206,50.54 522.206,50.54L521.704,50.515ZM513.673,50.205C512.985,50.184 512.296,50.165 511.607,50.147L513.053,50.186L513.673,50.205ZM510.16,50.113L511.607,50.147L510.16,50.113ZM508.712,50.083L510.16,50.113L508.712,50.083L507.313,50.058L508.712,50.083ZM500,50L501.455,50.002L502.908,50.009C501.937,50.003 500.969,50 500,50Z"/>
    </g>
</svg>
